<?xml version="1.0" encoding="utf-8"?>
<!-- Generator: Adobe Illustrator 21.0.0, SVG Export Plug-In . SVG Version: 6.00 Build 0)  -->
<svg version="1.1" id="Layer_1" xmlns="http://www.w3.org/2000/svg" xmlns:xlink="http://www.w3.org/1999/xlink" x="0px" y="0px"
	 viewBox="0 0 100 100" style="enable-background:new 0 0 100 100;" xml:space="preserve">
<style type="text/css">
	.st0{opacity:0.5;}
	.st1{display:none;fill:#8C8CF4;}
	.st2{fill:#8C8CF4;}
	.st3{display:none;}
	.st4{display:inline;}
</style>
<g id="GkmRmz.tif_1_" class="st0">
	
		<image style="overflow:visible;" width="1024" height="1024" id="Layer_0_1_" xlink:href="99094828F80AF34E.png"  transform="matrix(9.765625e-02 0 0 9.765625e-02 0 -0.4137)">
	</image>
</g>
<path class="st1" d="M23.7,23.4h15c9.6,0,13,6.4,13,12.3c0,4.4-2.1,7.8-4.9,9.6c4.1,2.1,6,6.3,6,10.4c0,6.2-3.3,12.6-13,12.6H23.7
	V23.4z M38.6,28.3h-10v14.9h10c5.1,0,8-3.1,8-7.5C46.6,31.4,43.7,28.3,38.6,28.3z M28.6,48.1v15.4h11.1c4.9,0,8-2.9,8-7.7
	s-3.1-7.7-8-7.7H28.6z"/>
<path class="st1" d="M72,59.1h3.9c-0.7,6.6-5.7,8.8-10.2,8.8c-4.9,0-10.3-2.5-10.3-10.3v-6.9c0-7.8,5.4-10.3,10.3-10.3
	c4.9,0,10.3,2.5,10.3,10.3v4.4H59.2v2.5c0,4.4,3.1,6.6,6.5,6.6C68.7,64.2,71.4,62.5,72,59.1z M72.1,50.6c0-4.4-3.1-6.6-6.5-6.6
	c-3.4,0-6.5,2.2-6.5,6.6v1h13V50.6z"/>
<rect x="59" y="30.8" class="st1" width="13.2" height="3.8"/>
<path class="st2" d="M26.9,34.9h13.3v28.5h11.7v4.6H23.7v-4.6h11.7V39.6h-8.5V34.9z M33.7,23.1h7.1v7.1h-7.1V23.1z"/>
<path class="st2" d="M77.1,51v17.1h-3.9V51c0-4.5-3.1-6.7-6.6-6.7S60,46.5,60,51v17.1h-3.9V41.2H60v2.5c1.4-2.2,4.2-3.3,6.6-3.3
	C71.6,40.5,77.1,43.1,77.1,51z"/>
<g id="Layer_2" class="st3">
	<g id="_x35_zrcY2_1_" class="st4">
		
			<image style="overflow:visible;" width="225" height="225" id="_x35_zrcY2" xlink:href="99094828F80AF34F.jpg"  transform="matrix(0.2342 0 0 0.2342 23.5625 22.9583)">
		</image>
	</g>
</g>
</svg>
