<?xml version="1.0" encoding="utf-8"?>
<!-- Generator: Adobe Illustrator 21.0.0, SVG Export Plug-In . SVG Version: 6.00 Build 0)  -->
<svg version="1.1" id="Layer_1" xmlns="http://www.w3.org/2000/svg" xmlns:xlink="http://www.w3.org/1999/xlink" x="0px" y="0px"
	 viewBox="0 0 100 100" style="enable-background:new 0 0 100 100;" xml:space="preserve">
<style type="text/css">
	.st0{display:none;opacity:0.5;}
	.st1{fill:#8C8CF4;}
	.st2{display:none;}
	.st3{display:inline;fill:none;}
	.st4{display:inline;fill:#8C8CF4;}
	.st5{font-family:'SimplonBPMono-Regular';}
	.st6{font-size:52px;}
	.st7{display:inline;}
</style>
<g id="GkmRmz.tif_1_" class="st0">
	
		<image style="display:inline;overflow:visible;" width="1024" height="1024" id="Layer_0_1_" xlink:href="41999F70227342D6.png"  transform="matrix(9.765625e-02 0 0 9.765625e-02 0 -0.4137)">
	</image>
</g>
<path class="st1" d="M23.7,23.4h15c9.6,0,13,6.4,13,12.3c0,4.4-2.1,7.8-4.9,9.6c4.1,2.1,6,6.3,6,10.4c0,6.2-3.3,12.6-13,12.6H23.7
	V23.4z M38.6,28.3h-10v14.9h10c5.1,0,8-3.1,8-7.5C46.6,31.4,43.7,28.3,38.6,28.3z M28.6,48.1v15.4h11.1c4.9,0,8-2.9,8-7.7
	s-3.1-7.7-8-7.7H28.6z"/>
<path class="st1" d="M72,59.1h3.9c-0.7,6.6-5.7,8.8-10.2,8.8c-4.9,0-10.3-2.5-10.3-10.3v-6.9c0-7.8,5.4-10.3,10.3-10.3
	c4.9,0,10.3,2.5,10.3,10.3v4.4H59.2v2.5c0,4.4,3.1,6.6,6.5,6.6C68.7,64.2,71.4,62.5,72,59.1z M72.1,50.6c0-4.4-3.1-6.6-6.5-6.6
	c-3.4,0-6.5,2.2-6.5,6.6v1h13V50.6z"/>
<rect x="59" y="30.8" class="st1" width="13.2" height="3.8"/>
<g class="st2">
	<rect x="19.1" y="31.7" class="st3" width="65.2" height="44"/>
	<text transform="matrix(1 0 0 1 19.0835 68.0664)" class="st4 st5 st6">in</text>
</g>
<g id="Layer_2" class="st2">
	<g id="_x35_zrcY2_1_" class="st7">
		
			<image style="overflow:visible;" width="225" height="225" id="_x35_zrcY2" xlink:href="41999F70227342DA.jpg"  transform="matrix(0.2342 0 0 0.2342 23.5625 22.9583)">
		</image>
	</g>
</g>
</svg>
